<svg width="160" height="33" viewBox="0 0 160 33" fill="none" xmlns="http://www.w3.org/2000/svg">
<path d="M157.758 10.6081C156.302 9.00939 154.391 8.11914 152.342 8.11914H147.777H147.761C147.039 8.14394 146.482 8.70831 146.482 9.41732C146.482 9.41732 146.482 24.7032 146.482 25.1035C146.86 25.1035 152.343 25.1035 152.343 25.1035C154.384 25.1035 156.303 24.2221 157.759 22.6057C159.211 20.9994 160 18.8753 160 16.6148C160 14.3402 159.211 12.2156 157.758 10.6081ZM155.082 19.8612C154.402 20.9763 153.425 21.3677 152.414 21.3677H150.462V11.8608H150.674H152.414C154.976 11.8608 155.9 14.4388 155.9 16.6148C155.9 17.9325 155.523 19.1274 155.082 19.8612Z" fill="#3D3D3D"/>
<path d="M134.286 25.0976C134.268 25.0976 134.268 25.0976 134.25 25.0976C133.292 25.0976 132.501 24.3207 132.501 23.3637C132.501 23.3637 132.492 8.5377 132.492 8.11914C132.861 8.11914 135.396 8.11914 135.396 8.11914C136.116 8.11914 136.688 8.70831 136.688 9.41732V21.5437H143.063C143.661 21.5437 144.151 22.0407 144.151 22.6423V25.0633L134.286 25.0976Z" fill="#3D3D3D"/>
<path d="M113.167 16.5399C113.167 21.624 109.018 25.7488 103.889 25.7488C98.7654 25.7488 94.6189 21.6246 94.6189 16.5399C94.6189 11.4281 98.7654 7.31628 103.889 7.31628C109.018 7.31628 113.167 11.4281 113.167 16.5399ZM103.889 11.6223C101.171 11.6223 98.9512 13.8326 98.9512 16.5399C98.9512 19.2449 101.171 21.4398 103.889 21.4398C106.599 21.4398 108.821 19.2449 108.821 16.5399C108.82 13.8326 106.599 11.6223 103.889 11.6223Z" fill="#3D3D3D"/>
<path d="M82.9966 8.11974C83.0833 8.38421 86.5291 17.1769 86.5291 17.1769L86.7161 16.678L89.5105 9.47576C89.7629 8.90667 90.6227 8.11914 91.4059 8.11914C91.4059 8.11914 94.078 8.11914 94.6177 8.11914C94.1855 9.14162 94.3042 8.89898 87.9761 24.3142C87.972 24.3142 87.972 24.3201 87.972 24.3201V24.3284C87.7523 24.7758 87.3046 25.0976 86.7767 25.0976C86.7767 25.0976 85.5653 25.0976 85.3177 25.0976C85.2833 24.9748 85.0844 24.5497 82.1409 17.521C82.1409 17.521 79.0728 24.8561 78.9653 25.0976C78.723 25.0976 77.5194 25.0976 77.5194 25.0976C76.9838 25.0976 76.5301 24.7758 76.3342 24.3284V24.3201C76.3241 24.3142 76.3241 24.3142 76.3205 24.2776L70.5999 10.1901C70.5441 10.0271 70.5007 9.84178 70.5007 9.64814C70.5007 8.80689 71.1955 8.11974 72.0185 8.11974H74.1924C74.7493 9.5165 78.02 17.6214 78.02 17.6214L80.1119 12.1589C80.1119 12.1589 79.7699 11.1772 79.6755 10.8654C79.5805 10.5301 79.5193 10.1901 79.5193 9.94096C79.5193 8.79804 80.3744 8.11974 81.3049 8.11974H82.9966Z" fill="#3D3D3D"/>
<path d="M126.843 19.0625L126.898 19.0348C127.792 18.3293 128.499 17.3918 128.9 16.2938C128.9 16.2566 128.928 16.2259 128.937 16.1887C128.972 16.0907 129.01 16.0246 129.028 15.929C129.065 15.7814 129.095 15.6539 129.127 15.5027C129.143 15.4596 129.155 15.4136 129.159 15.3935C129.181 15.2105 129.222 15.0322 129.246 14.841C129.246 14.841 129.246 14.8333 129.246 14.8162C129.266 14.6314 129.266 14.4378 129.266 14.25C129.266 14.2471 129.266 14.2299 129.266 14.2105C129.266 10.8596 126.532 8.11865 123.148 8.11865H117.014C116.3 8.11865 115.714 8.70782 115.714 9.41683C115.714 9.41683 115.714 24.6844 115.714 25.103C116.072 25.103 118.448 25.103 118.448 25.103C119.171 25.103 119.734 24.5339 119.734 23.8042V20.029H122.939C122.939 20.029 124.654 23.0014 124.989 23.5457C125.521 24.3964 126.469 25.103 127.546 25.103C128.675 25.103 130.009 25.103 130.368 25.103C130.022 24.5498 126.843 19.0625 126.843 19.0625ZM122.894 16.3723H119.734V11.8331H122.894C124.151 11.8331 125.173 12.8468 125.173 14.0959C125.173 15.3451 124.151 16.3635 122.894 16.3635V16.3723Z" fill="#3D3D3D"/>
<path d="M34.9267 15.3567C34.9267 23.8542 28.0042 30.7495 19.4725 30.7495C10.9302 30.7495 4 23.8542 4 15.3567C4 6.87107 10.9302 0 19.4725 0C28.0048 0 34.9267 6.87166 34.9267 15.3567ZM19.4725 7.18394C14.9146 7.18394 11.2301 10.853 11.2301 15.3567C11.2301 19.8912 14.9146 23.5407 19.4725 23.5407C24.0097 23.5407 27.6889 19.8912 27.6889 15.3567C27.6889 10.853 24.0097 7.18394 19.4725 7.18394Z" fill="#F37124"/>
<path d="M15.6991 11L13.6316 11C13.2792 11 13 11.2773 13 11.6473C13 11.9863 13.2798 12.266 13.6316 12.266L15.6991 12.266C16.0497 12.266 16.339 11.9863 16.339 11.6473C16.339 11.2773 16.0497 11 15.6991 11Z" fill="#F37124"/>
<path d="M15.6991 13L13.6316 13C13.2792 13 13 13.2773 13 13.6473C13 13.9863 13.2798 14.266 13.6316 14.266L15.6991 14.266C16.0497 14.266 16.339 13.9863 16.339 13.6473C16.339 13.2773 16.0497 13 15.6991 13Z" fill="#F37124"/>
<path d="M24.6991 11L22.6316 11C22.2792 11 22 11.3016 22 11.646C22 12.01 22.2798 12.2915 22.6316 12.2915L24.6991 12.2915C25.0497 12.2915 25.339 12.0094 25.339 11.646C25.339 11.3016 25.0497 11 24.6991 11Z" fill="#F37124"/>
<path d="M24.6991 13L22.6316 13C22.2792 13 22 13.3016 22 13.646C22 14.01 22.2798 14.2915 22.6316 14.2915L24.6991 14.2915C25.0497 14.2915 25.339 14.0094 25.339 13.646C25.339 13.3016 25.0497 13 24.6991 13Z" fill="#F37124"/>
<path d="M21.5768 16.0912C21.5768 17.3805 20.5323 18.4106 19.245 18.4106C17.9642 18.4106 16.9238 17.3805 16.9238 16.0912C16.9238 15.7494 16.6329 15.4601 16.2831 15.4601C15.9185 15.4601 15.6365 15.7494 15.6365 16.0912C15.6365 18.0576 17.2605 19.6799 19.245 19.6799C21.2389 19.6799 22.8517 18.0576 22.8517 16.0912C22.8517 15.7494 22.5655 15.4601 22.2033 15.4601C21.8476 15.4601 21.5768 15.7494 21.5768 16.0912Z" fill="#F37124"/>
<path d="M18.9714 11.6522L17.4952 13.1275C17.3795 13.2385 17.3159 13.3996 17.3159 13.572C17.3159 13.7444 17.3789 13.9026 17.4952 14.0254L18.9714 15.4912C19.2238 15.7486 19.6216 15.7486 19.8829 15.4912C19.9987 15.3655 20.0622 15.2096 20.0622 15.0473C20.0622 14.8897 19.9987 14.7102 19.8829 14.5945C19.8829 14.5945 19.2885 14.0071 18.858 13.572C19.2885 13.1399 19.8829 12.5584 19.8829 12.5584C19.9987 12.4291 20.0622 12.2579 20.0622 12.1014C20.0622 11.932 19.9987 11.7856 19.8829 11.6522C19.6311 11.4125 19.2238 11.4125 18.9714 11.6522Z" fill="#F37124"/>
<path d="M58 11.9321C58.0619 10.84 58.7696 8.58219 60.5351 8.32459C61.4204 8.19543 63.4757 7.72193 64.2494 8.22997C67.6821 10.4838 66.1088 15.8302 63.5125 18.059C61.7514 19.5708 58.4665 23.3826 63.0556 23.8429C65.2193 24.06 69.1583 24.2013 71 23.216" stroke="#3D3D3D" stroke-width="4" stroke-linecap="round"/>
<path d="M47.0646 3.6571C45.9906 6.79867 44.2776 9.67199 43.2644 12.8458C42.7354 14.5026 41.6476 18.3001 43.3755 19.428C43.8961 19.7678 44.9584 19.7839 45.5114 19.6386C47.9271 19.0035 50.2435 17.938 52.6962 17.4768C54.1406 17.2051 55.4399 16.7486 56.8717 16.6206" stroke="#3D3D3D" stroke-width="4" stroke-linecap="round"/>
<path d="M49.9952 5.99311C51.1873 11.2777 51.2734 16.8503 51.9225 22.2591C52.0784 23.5583 52.4601 25.1606 53.125 26.2612" stroke="#3D3D3D" stroke-width="4" stroke-linecap="round"/>
</svg>
